<?xml version="1.0" encoding="UTF-8"?>
<svg xmlns="http://www.w3.org/2000/svg" width="24" height="24" viewBox="0 0 24 24" fill="none" stroke="#FF0000" stroke-width="2" stroke-linecap="round" stroke-linejoin="round">
  <path d="M19.45 13.97c-.27-.51-.88-.84-1.54-.84-.28 0-.53.11-.72.29l-.57.58-.57-.58c-.19-.18-.45-.29-.73-.29-.66 0-1.27.33-1.54.84A4.37 4.37 0 0 0 13 16.39c0 2.4 1.9 4.17 4.25 4.17s4.25-1.77 4.25-4.17c0-1.42-.87-2.57-2.05-2.42z"/>
  <path d="M12 2c-1.95 0-3.8.73-5.2 2.05A6.96 6.96 0 0 0 2 9c0 3.87 3.13 7 7 7s7-3.13 7-7c0-1.95-.73-3.8-2.05-5.2A6.96 6.96 0 0 0 12 2z"/>
</svg> 